<?xml version="1.0" encoding="UTF-8" standalone="no"?>
<!DOCTYPE svg PUBLIC "-//W3C//DTD SVG 1.1//EN" "http://www.w3.org/Graphics/SVG/1.1/DTD/svg11.dtd">
<svg width="100%" height="100%" viewBox="0 0 54 51" version="1.1" xmlns="http://www.w3.org/2000/svg" xmlns:xlink="http://www.w3.org/1999/xlink" xml:space="preserve" style="fill-rule:evenodd;clip-rule:evenodd;stroke-linejoin:round;stroke-miterlimit:1.41421;">
    <g transform="matrix(1,0,0,1,490.084,0.000439288)">
        <g transform="matrix(1,0,0,1,-490.084,0)">
            <g>
                <path d="M0,18.1C0.296,17.343 0.428,16.45 0.922,15.86C1.885,14.709 2.978,13.636 4.151,12.698C5.819,11.364 7.493,11.4 9.207,12.772C10.974,14.187 12.282,15.998 13.155,18.092C13.827,19.706 13.455,21.154 12.284,22.415C11.805,22.929 11.319,23.438 10.816,23.928C10.269,24.459 10.048,25.118 10.303,25.801C10.644,26.714 11.004,27.66 11.564,28.442C14.49,32.531 18.016,36.043 22.093,38.987C22.928,39.59 23.832,40.108 24.888,40.283C25.571,40.396 26.128,40.215 26.612,39.731C27.121,39.221 27.635,38.716 28.166,38.229C29.42,37.08 30.855,36.729 32.448,37.396C34.608,38.3 36.478,39.636 37.892,41.508C39.181,43.216 39.129,44.88 37.76,46.519C36.874,47.581 35.88,48.56 34.876,49.514C33.872,50.467 32.57,50.58 31.272,50.519C28.039,50.368 25.103,49.199 22.324,47.658C14.564,43.356 8.445,37.316 3.776,29.801C2.148,27.181 0.89,24.382 0.269,21.332C0.165,20.82 0.089,20.303 0,19.787C0,19.225 0,18.662 0,18.1" style="fill:rgb(208,27,52);fill-rule:nonzero;"/>
                <path d="M12.917,12.608C12.031,11.785 11.185,11.001 10.334,10.211C15.043,3.25 24.326,-1.482 34.415,0.424C44.664,2.361 52.392,10.659 53.767,20.754C55.256,31.685 49.268,41.023 41.323,45.206C41.553,43.883 41.449,42.635 40.904,41.405C41.271,41.148 41.633,40.909 41.98,40.649C46.602,37.19 49.388,32.625 50.269,26.906C50.316,26.603 50.222,26.466 49.978,26.325C48.719,25.594 47.469,24.848 46.165,24.076C46.327,23.966 46.443,23.876 46.569,23.802C47.702,23.131 48.833,22.457 49.972,21.797C50.213,21.658 50.311,21.53 50.264,21.221C49.502,16.132 47.183,11.89 43.308,8.522C40.292,5.9 36.778,4.323 32.817,3.743C32.469,3.692 32.321,3.811 32.162,4.087C31.534,5.183 30.883,6.267 30.238,7.354C30.152,7.5 30.051,7.637 29.922,7.831C29.183,6.584 28.456,5.407 27.786,4.199C27.56,3.79 27.323,3.685 26.878,3.758C22.052,4.539 18,6.739 14.708,10.346C14.377,10.709 14.067,11.093 13.762,11.478C13.469,11.848 13.196,12.234 12.917,12.608" style="fill:rgb(208,27,52);fill-rule:nonzero;"/>
                <path d="M23.002,26.463L28.55,26.463L28.55,29.243L19.394,29.243C18.773,27.319 19.505,24.974 21.211,23.563C22.048,22.87 22.945,22.249 23.81,21.59C24.047,21.41 24.285,21.225 24.492,21.013C24.971,20.522 25.07,19.992 24.811,19.481C24.578,19.022 23.979,18.734 23.382,18.789C22.804,18.843 22.359,19.134 21.992,19.561C21.834,19.744 21.689,19.938 21.509,20.164C20.852,19.725 20.213,19.299 19.575,18.87C19.432,18.774 19.295,18.671 19.132,18.554C19.703,17.389 20.578,16.571 21.734,16.104C23.474,15.402 25.18,15.537 26.76,16.578C28.613,17.798 28.951,20.63 27.415,22.447C26.846,23.12 26.104,23.656 25.403,24.206C24.825,24.66 24.17,25.016 23.588,25.466C23.303,25.687 23.107,26.022 22.871,26.306C22.914,26.358 22.958,26.411 23.002,26.463" style="fill:rgb(208,27,52);fill-rule:nonzero;"/>
                <path d="M33.303,23.291L35.887,23.291L35.887,19.218C35.083,20.485 34.213,21.856 33.303,23.291M39.1,23.314L40.652,23.314L40.652,26.011L39.134,26.011L39.134,29.23L35.891,29.23L35.891,26.052L29.944,26.052C30.015,25.058 29.81,24.155 30.428,23.243C31.962,20.979 33.382,18.636 34.834,16.316C35.021,16.018 35.217,15.881 35.586,15.89C36.739,15.917 37.893,15.9 39.1,15.9L39.1,23.314Z" style="fill:rgb(208,27,52);fill-rule:nonzero;"/>
                <path d="M33.303,23.291C34.213,21.856 35.083,20.485 35.887,19.218L35.887,23.291L33.303,23.291Z" style="fill:white;fill-rule:nonzero;"/>
            </g>
        </g>
    </g>
</svg>
