<?xml version="1.0" encoding="UTF-8" standalone="no"?>
<!DOCTYPE svg PUBLIC "-//W3C//DTD SVG 1.1//EN" "http://www.w3.org/Graphics/SVG/1.1/DTD/svg11.dtd">
<svg width="100%" height="100%" viewBox="0 0 55 55" version="1.1" xmlns="http://www.w3.org/2000/svg" xmlns:xlink="http://www.w3.org/1999/xlink" xml:space="preserve" style="fill-rule:evenodd;clip-rule:evenodd;stroke-linejoin:round;stroke-miterlimit:1.41421;">
    <g transform="matrix(1,0,0,1,403.783,-2.0279)">
        <g transform="matrix(1,0,0,1,-490.084,0)">
            <g>
                <path d="M113.504,48.341C103.07,48.332 94.54,39.781 94.572,29.364C94.605,18.941 103.119,10.448 113.522,10.46C123.959,10.471 132.489,19.021 132.454,29.437C132.419,39.861 123.91,48.35 113.504,48.341M113.509,7.697C101.39,7.704 91.804,17.376 91.81,29.405C91.817,41.515 101.483,51.11 113.517,51.103C125.63,51.096 135.133,41.429 135.241,29.396C135.119,17.285 125.545,7.69 113.509,7.697" style="fill:rgb(208,27,52);fill-rule:nonzero;"/>
                <path d="M114.019,42.424C107.26,42.746 101.188,37.668 100.531,30.702C99.8,22.954 105.54,17.021 112.238,16.414C119.96,15.714 125.868,21.415 126.499,28.098C127.25,36.049 121.062,42.249 114.019,42.424M113.55,13.575C104.815,13.547 97.704,20.631 97.687,29.377C97.671,38.115 104.759,45.219 113.503,45.226C122.243,45.233 129.341,38.137 129.338,29.396C129.335,20.674 122.278,13.603 113.55,13.575" style="fill:rgb(208,27,52);fill-rule:nonzero;"/>
                <path d="M108.894,22.903C108.758,22.949 108.576,23.132 108.573,23.255C108.547,24.277 108.375,25.299 108.375,26.389C109.759,25.968 111.3,25.567 112.3,25.138L112.3,37.782L116.3,37.782L116.3,20.62C116.3,20.639 115.807,20.609 115.594,20.679C113.352,21.408 111.128,22.149 108.894,22.903" style="fill:rgb(208,27,52);fill-rule:nonzero;"/>
                <path d="M113.669,53.914C100.129,53.914 89.152,42.937 89.152,29.397C89.152,15.857 100.129,4.88 113.669,4.88C127.209,4.88 138.186,15.857 138.186,29.397C138.186,42.937 127.209,53.914 113.669,53.914M113.669,2.028C98.554,2.028 86.301,14.282 86.301,29.397C86.301,44.512 98.554,56.765 113.669,56.765C128.784,56.765 141.038,44.512 141.038,29.397C141.038,14.282 128.784,2.028 113.669,2.028" style="fill:rgb(208,27,52);fill-rule:nonzero;"/>
            </g>
        </g>
    </g>
</svg>
