<?xml version="1.0" encoding="UTF-8" standalone="no"?>
<!DOCTYPE svg PUBLIC "-//W3C//DTD SVG 1.1//EN" "http://www.w3.org/Graphics/SVG/1.1/DTD/svg11.dtd">
<svg width="100%" height="100%" viewBox="0 0 53 47" version="1.1" xmlns="http://www.w3.org/2000/svg" xmlns:xlink="http://www.w3.org/1999/xlink" xml:space="preserve" style="fill-rule:evenodd;clip-rule:evenodd;stroke-linejoin:round;stroke-miterlimit:1.41421;">
    <g transform="matrix(1,0,0,1,313.089,-8.06535)">
        <g transform="matrix(1,0,0,1,-490.084,0)">
            <g>
                <path d="M218.817,35.314C218.706,35.207 218.644,35.144 218.579,35.085C217.624,34.224 216.632,33.401 215.727,32.491C215.017,31.777 214.192,31.785 213.305,31.846L213.305,35.588C215.131,35.497 216.939,35.407 218.817,35.314M210.482,31.843C210.397,31.837 210.328,31.826 210.258,31.826C207.874,31.826 205.49,31.813 203.106,31.83C200.918,31.844 198.924,32.484 197.181,33.818C196.067,34.671 194.987,35.567 193.893,36.446C193.858,36.474 193.835,36.517 193.781,36.584C199.374,36.3 204.922,36.018 210.482,35.736L210.482,31.843ZM176.995,44.997C177.155,44.742 177.339,44.517 177.688,44.489C177.688,43.648 177.67,42.821 177.697,41.995C177.709,41.624 177.754,41.234 177.884,40.89C178.211,40.018 178.881,39.504 179.775,39.28C182.668,38.557 185.563,37.839 188.455,37.112C188.606,37.074 188.758,36.996 188.879,36.898C191.021,35.183 193.159,33.463 195.297,31.743C196.941,30.419 198.794,29.546 200.882,29.217C201.59,29.105 202.314,29.056 203.03,29.053C206.891,29.037 210.752,29.053 214.612,29.04C215.591,29.037 216.41,29.359 217.131,30.017C218.971,31.698 220.826,33.363 222.682,35.027C222.776,35.111 222.934,35.166 223.06,35.164C223.707,35.151 224.355,35.071 225,35.096C226.322,35.147 227.308,36.051 227.482,37.362C227.733,39.261 227.953,41.163 228.187,43.064C228.245,43.537 228.301,44.009 228.358,44.476C229.057,44.657 229.243,44.9 229.244,45.624C229.244,46.569 229.245,47.513 229.243,48.458C229.241,49.201 228.91,49.532 228.174,49.532C226.752,49.533 225.33,49.533 223.908,49.533L223.615,49.533C224.031,45.695 220.98,42.114 216.981,42.11C213.051,42.105 209.937,45.593 210.329,49.512L196.256,49.512C196.664,45.509 193.434,42.098 189.599,42.107C185.739,42.116 182.561,45.54 182.955,49.533L182.663,49.533C181.151,49.533 179.639,49.52 178.128,49.539C177.574,49.546 177.188,49.362 176.995,48.831L176.995,44.997Z" style="fill:rgb(208,27,52);fill-rule:nonzero;"/>
                <path d="M179.685,17.8C179.685,19.915 179.684,22.029 179.685,24.144C179.686,24.834 179.98,25.128 180.668,25.129C184.871,25.129 189.073,25.129 193.275,25.128C193.958,25.128 194.262,24.826 194.262,24.139C194.263,19.919 194.263,15.699 194.262,11.479C194.262,10.78 193.959,10.479 193.257,10.479C189.064,10.479 184.871,10.479 180.677,10.479C179.975,10.479 179.685,10.774 179.685,11.483C179.685,13.589 179.685,15.694 179.685,17.8M196.665,17.817C196.665,20.013 196.67,22.209 196.663,24.405C196.659,25.952 195.718,27.147 194.255,27.469C194.003,27.525 193.738,27.544 193.479,27.544C189.132,27.549 184.785,27.549 180.438,27.546C178.591,27.545 177.271,26.227 177.269,24.384C177.266,20.001 177.266,15.619 177.269,11.236C177.27,9.389 178.587,8.07 180.432,8.068C184.788,8.065 189.143,8.065 193.499,8.068C195.118,8.069 196.362,9.093 196.626,10.638C196.664,10.858 196.663,11.086 196.664,11.31C196.666,13.479 196.665,15.648 196.665,17.817" style="fill:rgb(208,27,52);fill-rule:nonzero;"/>
                <path d="M191.208,48.878C191.215,47.998 190.512,47.277 189.636,47.264C188.748,47.251 188.015,47.966 188.008,48.853C188.001,49.739 188.726,50.468 189.611,50.467C190.49,50.466 191.202,49.758 191.208,48.878M189.61,54.187C186.674,54.188 184.293,51.804 184.286,48.868C184.278,45.959 186.757,43.488 189.595,43.479C192.446,43.469 194.95,45.979 194.931,48.867C194.912,51.808 192.551,54.186 189.61,54.187" style="fill:rgb(208,27,52);fill-rule:nonzero;"/>
                <path d="M215.378,48.88C215.385,49.763 216.103,50.473 216.982,50.468C217.861,50.463 218.577,49.743 218.576,48.865C218.575,47.976 217.844,47.253 216.954,47.264C216.075,47.274 215.371,47.996 215.378,48.88M216.978,54.187C214.039,54.19 211.676,51.813 211.655,48.871C211.634,45.981 214.135,43.471 216.986,43.479C219.818,43.487 222.304,45.958 222.299,48.865C222.293,51.799 219.915,54.185 216.978,54.187" style="fill:rgb(208,27,52);fill-rule:nonzero;"/>
                <path d="M185.374,17.457C185.872,17.457 186.341,17.497 186.802,17.449C187.715,17.352 188.305,16.845 188.518,16.045C188.732,15.243 188.421,14.417 187.736,14.073C186.975,13.692 186.175,13.765 185.374,13.907L185.374,17.457ZM182.706,11.982C183.35,11.923 183.975,11.842 184.602,11.815C185.823,11.763 187.048,11.688 188.258,11.953C189.54,12.235 190.554,12.879 191.003,14.164C191.485,15.546 191.291,16.856 190.408,18.044C189.741,18.942 188.78,19.328 187.733,19.492C186.965,19.612 186.179,19.609 185.364,19.664L185.364,23.826L182.706,23.826L182.706,11.982Z" style="fill:rgb(208,27,52);fill-rule:nonzero;"/>
            </g>
        </g>
    </g>
</svg>
